<?xml version="1.0" encoding="UTF-8"?>
<svg xmlns="http://www.w3.org/2000/svg" version="1.1" viewBox="0 0 846.5 997.3">
  <defs>
    <style>
      .cls-1 {
        fill: #ff3e4b;
      }

      .cls-2 {
        fill: #3391b8;
      }

      .cls-3 {
        fill: #fff;
      }

      .cls-4 {
        fill: #001d27;
      }

      .cls-5 {
        fill: #fbfdfd;
      }

      .cls-6 {
        fill: #072433;
      }
    </style>
  </defs>
  <!-- Generator: Adobe Illustrator 28.6.0, SVG Export Plug-In . SVG Version: 1.2.0 Build 709)  -->
  <g>
    <g id="Layer_2">
      <g id="Layer_1-2">
        <g>
          <path class="cls-3" d="M422.3,997.3S-56.6,773.4,5.6,155c0,0,285.8-124.4,416.7-155,0,0,207.6,49.6,420.4,158.3-8.7.6,98.7,563.9-420.4,839h0Z"/>
          <path class="cls-6" d="M65,193.3S334.3,75.8,422.3,61.3c0,0,214.2,59.5,360.7,132,0,0,86.5,458.4-360.7,738.3,0,0-412.4-212.5-357.3-738.3h0Z"/>
          <path class="cls-1" d="M93.2,211.1s125.6-60.8,329.1-119.4c0,0,145.3,30.7,328.6,119.4,0,0,33,184.9-45.1,363H141.3s-69.3-109.3-48.1-363h0Z"/>
          <path class="cls-2" d="M141.1,575.8h564.1c0-.1-72.7,198.8-282,321.9,0,0-179.4-95.3-282-321.9Z"/>
          <path class="cls-4" d="M390.3,209.4c-7.7,1.4-28.5,7.1-48.5,30.4-18.2,21.2-27.7,48.4-27.7,76.3v75.4s1,10.5-7,15.7h234.2s-5.4-5.8-5.4-13.5l.7-72.5c.2-22-4.9-43.8-15.5-63-11.4-20.7-30.8-42-63.1-48.6-1.8-.4-3-2-2.8-3.8,1.2-10.7,2.4-45.2-30.3-45.1-32.7.1-32.6,34.4-31.7,45.1.1,1.7-1,3.2-2.7,3.6h0Z"/>
          <path class="cls-4" d="M286.1,434.3h275.7l22.6,48h-101s-11.4,49.3-58.6,49.3-55.4-50.7-55.4-50.7l-106.4,2,23.1-48.7h0Z"/>
          <path class="cls-5" d="M587.6,418.1s-9.1-8.6,16-24.9c1.3-.9,3.1-.6,4.1.5l61.8,67.4c8.1,8.9,6.2,23.1-4.1,29.3-.2,0-.3.2-.5.3,0,0-4.1,4.7-11.6-3.5l-18.9-20.4-46.8-48.8h0Z"/>
          <path class="cls-5" d="M263.5,418s9.1-8.6-16-24.9c-1.3-.9-3.1-.6-4.1.5l-61.8,67.4c-8.1,8.9-6.2,23.1,4.1,29.3.1,0,.3.2.4.3,0,0,4.1,4.7,11.6-3.5l18.9-20.4,46.8-48.8h0Z"/>
          <path class="cls-5" d="M588.6,330.9h125.3s14,7.2,14,16.2-11.8,15.8-11.8,15.8h-127.5s-9-4-12.9-16c0,0,3.6-11.3,12.9-16h0Z"/>
          <path class="cls-5" d="M133.5,330.9h125.3s14,7.2,14,16.2-11.9,15.8-11.9,15.8h-127.5s-9-4-12.9-16c0,0,3.6-11.3,12.9-16h0Z"/>
          <path class="cls-5" d="M587.6,279.9c-1.5,6,0,12.3,3.8,17.1,4.1,5.1,11.1,11.6,17.1,5.8,8-7.8,55.5-54.9,66.4-65.8,1.6-1.6,2.3-3.8,2.1-6-.6-5.6-3.4-15.9-14.6-18.5-2.8-.6-5.7.1-7.8,2.1l-66.2,63.8c-.4.4-.7.9-.8,1.4,0,0,0,0,0,0h0Z"/>
          <path class="cls-5" d="M259.7,281.6c1.5,6,0,12.3-3.8,17.1-4.1,5.1-11.1,11.6-17.1,5.8-8-7.8-55.4-54.9-66.4-65.8-1.6-1.6-2.3-3.8-2.1-6,.6-5.6,3.4-15.9,14.6-18.5,2.8-.6,5.7.1,7.8,2.1l66.2,63.8c.4.4.7.9.8,1.4,0,0,0,0,0,0h0Z"/>
          <path class="cls-5" d="M423.5,616.7l-63.4,131.1h68.7l-30.2,86.9s-3.3,25.5,23.8,11l64.1-135.9-70.6-1.4,24-68.2s3.9-12.1-16.3-23.5h0Z"/>
        </g>
      </g>
    </g>
  </g>
</svg>